<svg width="420" height="420" viewBox="0 0 420 420" fill="none" xmlns="http://www.w3.org/2000/svg">
<path d="M284.524 139.302V238.756L280.712 242.676L263.242 260.639C263.2 260.688 263.164 260.743 263.136 260.803L129.674 397.981C119.837 408.046 107.24 414.776 93.575 417.267C79.9106 419.758 65.8317 417.891 53.2287 411.917C53.1128 411.886 53.0043 411.83 52.9108 411.753C52.8833 411.722 52.8456 411.703 52.8049 411.699C45.7494 408.312 39.3329 403.668 33.8525 397.981C31.7561 395.839 29.81 393.547 28.029 391.122C27.9861 391.073 27.9505 391.018 27.9232 390.959C27.7883 390.824 27.6643 390.678 27.5525 390.523C17.7846 377.098 13.0454 360.505 14.2023 343.781C15.3592 327.057 22.3348 311.32 33.8525 299.452L152.968 177.026C152.995 176.967 153.031 176.912 153.074 176.863L169.38 160.096L189.603 139.302H284.524Z" fill="url(#paint0_linear_142_4)"/>
<path d="M419.999 70.0589V350.295C420.003 359.731 418.143 369.071 414.531 377.746C410.919 386.421 405.63 394.251 398.987 400.762C392.344 407.272 384.483 412.327 375.882 415.62C367.282 418.913 358.12 420.375 348.954 419.918C333.093 418.843 318.084 412.156 306.475 400.992C294.866 389.829 287.372 374.878 285.267 358.678C285.274 358.671 285.279 358.663 285.283 358.653C285.287 358.644 285.289 358.634 285.289 358.623C285.289 358.613 285.287 358.603 285.283 358.594C285.279 358.585 285.274 358.576 285.267 358.569H285.214V358.46C285.19 358.241 285.154 358.022 285.108 357.807C284.728 354.646 284.533 351.465 284.526 348.281V139.301H69.6942C53.9344 139.289 38.6257 133.889 26.1774 123.95L26.1245 123.896C26.0715 123.896 26.0186 123.842 25.9656 123.787C25.9127 123.733 25.8069 123.624 25.701 123.515C25.5891 123.393 25.4648 123.284 25.3304 123.188C17.8894 117.165 11.7868 109.576 7.43159 100.928C3.07631 92.2818 0.569112 82.7773 0.0779755 73.0529C-0.361986 63.6284 1.06325 54.2102 4.2674 45.3687C7.47156 36.5273 12.388 28.4467 18.7187 21.6165C25.0494 14.7863 32.6626 9.34865 41.0973 5.63297C49.5319 1.9173 58.6122 0.000939122 67.7883 1.90433e-06H351.865C360.813 -0.00214357 369.674 1.8086 377.942 5.32863C386.209 8.84866 393.721 14.009 400.048 20.515C406.376 27.021 411.395 34.7452 414.818 43.2461C418.241 51.747 420.002 60.8582 419.999 70.0589Z" fill="url(#paint1_linear_142_4)"/>
<g style="mix-blend-mode:screen" opacity="0.3">
<g style="mix-blend-mode:screen" opacity="0.3">
<g style="mix-blend-mode:screen" opacity="0.3">
<path d="M404.115 70.059V72.2908H15.9631V71.5832C15.9631 71.2457 15.9631 70.7503 15.9631 70.1297C15.8838 63.0863 17.1661 56.0967 19.7355 49.5669C22.305 43.037 26.1104 37.0971 30.9307 32.092C35.751 27.0868 41.4904 23.1162 47.8154 20.4106C54.1403 17.7049 60.9252 16.3181 67.7756 16.3309H351.853C365.709 16.3395 378.996 22.0027 388.795 32.0765C398.594 42.1502 404.104 55.8109 404.115 70.059Z" fill="white"/>
</g>
</g>
</g>
<g style="mix-blend-mode:screen" opacity="0.2">
<g style="mix-blend-mode:screen" opacity="0.2">
<path d="M238.096 187.042L44.653 385.951C44.653 385.951 44.4943 385.787 44.1766 385.406C43.9391 385.217 43.7258 384.998 43.5413 384.753C34.5349 374.609 29.6704 361.29 29.9562 347.557C30.242 333.825 35.6563 320.732 45.0767 310.993L165.145 187.586C165.463 187.205 165.621 187.042 165.621 187.042H238.096Z" fill="white"/>
</g>
</g>
<g style="mix-blend-mode:multiply" opacity="0.2">
<g style="mix-blend-mode:multiply" opacity="0.2">
<path d="M284.533 139.302V238.756L280.721 242.676L263.251 260.639V160.096H169.388L189.611 139.302H284.533Z" fill="black"/>
</g>
</g>
<g style="mix-blend-mode:screen" opacity="0.6">
<g style="mix-blend-mode:screen" opacity="0.6">
<path d="M351.868 16.3309C351.868 16.3309 346.098 16.5486 336.039 16.8752C325.98 17.093 311.581 17.6374 294.322 17.8551C277.064 18.0729 256.946 18.6172 235.4 18.6716C213.853 18.7261 190.825 18.9438 167.796 19.0527C144.767 18.9438 121.79 18.7805 100.19 18.6716C89.3906 18.5628 78.9613 18.4539 69.1145 18.2906C60.0696 17.8996 51.0898 20.0247 43.1211 24.4418C36.3867 28.2618 30.5212 33.5136 25.9155 39.8472C22.3723 44.8111 19.7025 50.3752 18.0273 56.2867C16.978 60.1255 16.3215 64.0661 16.0686 68.0448C16.0209 68.8614 15.9944 69.5527 15.9786 70.1297C15.8993 63.0863 17.1817 56.0967 19.7512 49.5669C22.3206 43.037 26.1259 37.0971 30.9462 32.092C35.7665 27.0868 41.5059 23.1162 47.8309 20.4106C54.1557 17.7049 60.9405 16.3181 67.791 16.3309H351.868Z" fill="white"/>
</g>
</g>
<g style="mix-blend-mode:screen" opacity="0.6">
<g style="mix-blend-mode:screen" opacity="0.6">
<path d="M165.145 187.586C164.192 188.675 161.81 191.342 158.368 195.261C153.657 200.433 147.092 207.945 138.939 216.655C130.787 225.364 121.363 235.762 111.04 246.486C100.717 257.318 89.705 268.804 78.6405 280.29C73.0818 285.952 67.4701 291.613 61.9644 297.22C56.4586 302.827 50.953 308.27 45.8708 313.605C41.173 318.63 37.4691 324.547 34.9651 331.024C32.721 336.925 31.5371 343.196 31.471 349.533C31.43 354.912 32.1614 360.268 33.6416 365.428C34.8117 369.443 36.4095 373.313 38.4061 376.968C39.7513 379.306 41.2551 381.543 42.9061 383.664C43.36 384.22 43.7841 384.802 44.1766 385.406C43.9391 385.216 43.7258 384.996 43.5413 384.753C34.5349 374.608 29.6704 361.289 29.9562 347.556C30.242 333.824 35.6563 320.731 45.0767 310.992L165.145 187.586Z" fill="white"/>
</g>
</g>
<g style="mix-blend-mode:screen" opacity="0.6">
<g style="mix-blend-mode:screen" opacity="0.6">
<path d="M152.968 177.025C151.75 178.55 141.533 191.451 125.81 209.306C117.498 218.887 107.598 229.883 96.8515 241.477C91.3986 247.248 85.9458 253.344 80.1753 259.278C74.4048 265.211 68.5809 271.363 62.7045 277.46C56.8281 283.448 50.8991 289.435 45.0227 295.369C42.164 298.308 39.2523 301.194 36.4465 304.024C33.8338 306.7 31.4432 309.595 29.2995 312.68C25.2258 318.582 22.1146 325.127 20.088 332.059C18.2874 338.359 17.2908 344.873 17.1233 351.438C17.1012 357.055 17.6692 362.658 18.8174 368.15C19.8235 372.44 21.1509 376.644 22.788 380.724C23.5291 382.412 24.2172 383.882 24.7996 385.188C25.3819 386.495 26.0702 387.583 26.5467 388.454C27.2349 389.761 27.7643 390.632 27.9232 390.958C27.7883 390.824 27.6643 390.678 27.5525 390.523C17.7846 377.098 13.0454 360.505 14.2023 343.78C15.3592 327.057 22.3348 311.32 33.8525 299.452L152.968 177.025Z" fill="white"/>
</g>
</g>
<g style="mix-blend-mode:multiply" opacity="0.3">
<g style="mix-blend-mode:multiply" opacity="0.3">
<path d="M263.243 260.638C263.2 260.687 263.165 260.742 263.137 260.802L129.675 397.98C119.837 408.045 107.24 414.775 93.576 417.266C79.9111 419.757 65.8322 417.89 53.2293 411.916C53.0821 411.857 52.94 411.784 52.8058 411.698C56.4491 413.074 60.2052 414.113 64.0291 414.801C73.8669 416.719 83.988 416.478 93.7285 414.093C100.058 412.467 106.134 409.938 111.781 406.581C114.832 404.781 117.72 402.704 120.41 400.375C121.84 399.178 123.004 397.98 124.434 396.674L126.498 394.551L128.457 392.428C134.016 386.548 139.628 380.343 145.504 374.246C151.38 368.149 157.363 361.889 163.345 355.683C169.327 349.478 175.468 343.381 181.397 337.338C187.327 331.296 193.362 325.526 199.079 319.81C210.62 308.542 221.579 298.09 231.055 289.326C249.96 271.689 263.243 260.638 263.243 260.638Z" fill="black"/>
</g>
</g>
<g style="mix-blend-mode:multiply" opacity="0.3">
<g style="mix-blend-mode:multiply" opacity="0.3">
<path d="M285.268 358.57H285.215V358.461C285.244 358.49 285.262 358.528 285.268 358.57Z" fill="black"/>
</g>
</g>
<g style="mix-blend-mode:multiply" opacity="0.3">
<g style="mix-blend-mode:multiply" opacity="0.3">
<path d="M420 78.4415V350.294C420.004 359.731 418.143 369.07 414.531 377.745C410.919 386.421 405.631 394.251 398.987 400.761C392.344 407.272 384.483 412.327 375.883 415.619C367.282 418.913 358.121 420.375 348.954 419.918C333.094 418.842 318.085 412.155 306.476 400.991C294.866 389.828 287.372 374.877 285.267 358.677C285.479 359.494 285.85 360.964 286.326 363.087C287.6 367.968 289.338 372.709 291.514 377.24C294.827 384.251 299.266 390.637 304.643 396.129C311.441 403.206 319.662 408.669 328.731 412.133C333.804 414.081 339.112 415.309 344.507 415.781L348.954 416.107C350.331 416.107 351.707 416.053 353.137 415.998C356.066 415.949 358.987 415.658 361.872 415.127C374.124 412.872 385.482 407.032 394.589 398.307C399.345 393.76 403.398 388.491 406.606 382.684C409.771 376.697 412.106 370.284 413.541 363.631C414.175 360.236 414.564 356.797 414.706 353.343L414.812 350.566C414.865 350.185 414.812 348.824 414.812 348.008V342.401C414.759 334.889 414.759 327.322 414.706 319.81C414.812 304.677 414.865 289.598 414.918 274.792C415.077 259.931 415.235 245.287 415.394 231.189C415.765 202.882 416.294 176.481 416.982 153.835C417.565 131.244 418.518 112.355 418.994 99.1816C419.576 85.9537 420 78.4415 420 78.4415Z" fill="black"/>
</g>
</g>
<g style="mix-blend-mode:screen" opacity="0.6">
<g style="mix-blend-mode:screen" opacity="0.6">
<path d="M292.096 0C292.096 0 285.955 0.489936 275.261 1.03429C264.567 1.57865 249.214 2.50409 230.844 3.10288C212.527 3.81055 191.086 4.40933 168.11 4.79038C156.622 4.89925 144.763 5.22588 132.746 5.22588C120.676 5.33475 108.446 5.38915 96.2172 5.44359C90.0762 5.38915 83.9351 5.38921 77.847 5.33477L68.7413 5.28028C65.7766 5.38916 63.0767 5.44364 60.2708 5.77026C49.3587 7.01444 38.9452 11.14 30.0421 17.7461C21.6204 23.9719 14.7756 32.1861 10.0836 41.6979C8.94838 43.944 7.97523 46.2729 7.17197 48.6657C6.31465 50.9367 5.60721 53.2646 5.05436 55.6334C4.78966 56.831 4.47201 57.9742 4.20731 59.1173L3.73086 62.5468C3.57204 63.69 3.3603 64.7787 3.25442 65.9218C3.14854 67.065 3.14844 68.317 3.14844 69.5146C2.47344 84.3756 6.66787 99.0395 15.06 111.158C17.4597 114.594 20.1146 117.833 23.001 120.848C24.0069 121.882 24.801 122.644 25.3304 123.188C17.8894 117.165 11.7868 109.576 7.43159 100.928C3.07631 92.2818 0.569112 82.7773 0.0779755 73.0529C-0.361986 63.6284 1.06325 54.2102 4.2674 45.3687C7.47156 36.5273 12.388 28.4467 18.7187 21.6165C25.0494 14.7863 32.6626 9.34865 41.0973 5.63297C49.5319 1.9173 58.6122 0.000937217 67.7883 0H292.096Z" fill="white"/>
</g>
</g>
<g style="mix-blend-mode:multiply" opacity="0.3">
<g style="mix-blend-mode:multiply" opacity="0.3">
<path d="M284.527 139.302V238.756L280.714 242.676L280.503 234.51C280.08 218.669 279.868 202.774 279.603 186.933C279.338 172.834 279.391 158.79 279.286 144.691C264.145 144.745 249.057 144.582 233.916 144.528C217.716 144.31 201.516 144.092 185.317 143.711L189.605 139.302H284.527Z" fill="black"/>
</g>
</g>
<g style="mix-blend-mode:screen" opacity="0.4">
<g style="mix-blend-mode:screen" opacity="0.4">
<path d="M289.82 133.967L289.768 139.301C289.662 155.197 289.715 171.037 289.397 186.933C289.185 202.774 288.973 218.669 288.55 234.51L287.862 258.353L287.015 282.141C286.168 297.982 285.638 313.877 284.526 329.718V139.301H82.0832C98.9711 138.049 115.806 137.451 132.694 136.58C149.582 135.872 166.417 135.328 183.305 134.946C200.193 134.565 217.028 134.348 233.916 134.075C250.804 134.021 267.639 133.803 284.526 133.912L289.82 133.967Z" fill="white"/>
</g>
</g>
<defs>
<linearGradient id="paint0_linear_142_4" x1="27.5559" y1="402.436" x2="285.681" y2="156.539" gradientUnits="userSpaceOnUse">
<stop stop-color="#0BCE83"/>
<stop offset="1" stop-color="#326D57"/>
</linearGradient>
<linearGradient id="paint1_linear_142_4" x1="210" y1="5.88" x2="210" y2="407.82" gradientUnits="userSpaceOnUse">
<stop stop-color="#3BAF83"/>
<stop offset="1" stop-color="#0BCE83"/>
</linearGradient>
</defs>
</svg>
