<svg width="296" height="226" viewBox="0 0 296 226" fill="none" xmlns="http://www.w3.org/2000/svg">
<path d="M294.62 95.64L292.3 89.64C290.94 86.36 287.28 84.62 283.98 85.96C272.56 90.22 261.16 93.7 249.56 96.8V44.76C249.56 20 229.44 0.0800171 204.88 0.0800171H90.18C65.42 0.0800171 45.5 20.2 45.5 44.76V95.64C34.08 92.74 22.48 89.46 10.88 85.58C7.59999 84.42 3.91999 86.16 2.75999 89.64L0.639991 95.64C-0.520009 99.12 1.21999 102.8 4.69999 103.96C18.44 108.4 31.98 112.28 45.52 115.56V180.36C45.52 205.12 65.64 225.04 90.2 225.04H204.9C229.66 225.04 249.58 204.92 249.58 180.36V116.72C263.5 113.24 277.24 108.98 290.78 104.14C294.26 102.78 295.8 98.92 294.64 95.62L294.62 95.64ZM64.84 44.76C64.84 30.84 76.26 19.42 90.18 19.42H204.88C218.8 19.42 230.22 30.84 230.22 44.76V101.24C222.28 102.98 214.16 104.34 206.24 105.5C202.38 106.08 198.88 102.98 198.88 98.92V54.04C198.88 50.36 195.98 47.46 192.3 47.46H185.92C182.24 47.46 179.34 50.36 179.34 54.04V102C179.34 105.48 176.64 108.38 173.16 108.58C155.56 109.54 137.58 109.36 119.58 108C116.1 107.8 113.58 104.9 113.58 101.42V54.04C113.58 50.36 110.68 47.46 107 47.46H100.62C96.94 47.46 94.04 50.36 94.04 54.04V97.56C94.04 101.62 90.56 104.72 86.5 104.14C79.34 102.98 72 101.62 64.84 100.08V44.76ZM230.2 180.36C230.2 194.28 218.78 205.7 204.86 205.7H90.18C76.26 205.7 64.84 194.28 64.84 180.36V119.82C72.78 121.36 80.7 122.72 88.64 123.88C91.92 124.26 94.24 126.98 94.24 130.26V167.78C94.24 171.46 97.14 174.36 100.82 174.36H107.2C110.88 174.36 113.78 171.46 113.78 167.78V133.74C113.78 129.88 117.06 126.98 120.74 127.36C131.18 128.14 141.62 128.52 151.88 128.52C158.84 128.52 165.62 128.32 172.58 127.94C176.26 127.74 179.54 130.64 179.54 134.52V167.78C179.54 171.46 182.44 174.36 186.12 174.36H192.5C196.18 174.36 199.08 171.46 199.08 167.78V131.42C199.08 128.14 201.6 125.42 204.68 125.04C213.38 123.88 221.9 122.52 230.4 120.78V180.36H230.2Z" fill="url(#paint0_linear_325_36)"/>
<defs>
<linearGradient id="paint0_linear_325_36" x1="61.9272" y1="174.034" x2="201.025" y2="20.128" gradientUnits="userSpaceOnUse">
<stop stop-color="#58DDED"/>
<stop offset="0.51" stop-color="#7878FE"/>
<stop offset="1" stop-color="#28289A"/>
</linearGradient>
</defs>
</svg>
